<?xml version="1.0" standalone="no"?>
<!DOCTYPE svg PUBLIC "-//W3C//DTD SVG 20010904//EN"
 "http://www.w3.org/TR/2001/REC-SVG-20010904/DTD/svg10.dtd">
<svg version="1.0" xmlns="http://www.w3.org/2000/svg"
 width="418.000000pt" height="352.000000pt" viewBox="0 0 418.000000 352.000000"
 preserveAspectRatio="xMidYMid meet">
<g transform="translate(0.000000,352.000000) scale(0.100000,-0.100000)"
fill="#000000" stroke="none">
<path d="M3157 3049 c-44 -29 -104 -93 -139 -149 -53 -86 -93 -276 -82 -392
l6 -66 39 -10 c22 -5 39 -7 39 -3 0 3 -7 31 -15 61 -20 73 -19 208 1 289 31
123 87 212 168 267 28 19 46 34 40 34 -6 0 -31 -14 -57 -31z m-190 -371 c-3
-8 -6 -5 -6 6 -1 11 2 17 5 13 3 -3 4 -12 1 -19z m0 -70 c-3 -8 -6 -5 -6 6 -1
11 2 17 5 13 3 -3 4 -12 1 -19z m3 -89 c0 -6 -4 -7 -10 -4 -5 3 -10 11 -10 16
0 6 5 7 10 4 6 -3 10 -11 10 -16z m30 -66 c0 -7 -9 -2 -24 13 -9 8 -16 20 -16
26 0 6 9 1 20 -12 11 -13 20 -25 20 -27z"/>
<path d="M2430 3036 c0 -2 24 -18 53 -34 133 -75 228 -256 227 -435 -1 -45 -7
-100 -15 -122 -8 -21 -13 -41 -11 -42 7 -8 74 28 80 42 12 33 6 134 -14 210
-26 102 -78 196 -148 268 -62 64 -172 136 -172 113z m317 -468 c-3 -7 -5 -2
-5 12 0 14 2 19 5 13 2 -7 2 -19 0 -25z m-3 -117 c-2 -2 -4 3 -4 13 0 9 -3 15
-8 12 -4 -2 -5 14 -3 37 l5 42 7 -50 c5 -27 6 -51 3 -54z m-17 -13 c-3 -8 -6
-5 -6 6 -1 11 2 17 5 13 3 -3 4 -12 1 -19z"/>
<path d="M2540 3030 c-9 -6 -10 -10 -3 -10 6 0 15 5 18 10 8 12 4 12 -15 0z"/>
<path d="M3335 2885 c23 -136 10 -241 -43 -342 -29 -57 -90 -126 -134 -153
l-27 -16 36 -19 36 -20 41 46 c111 123 154 331 101 489 -9 27 -13 33 -10 15z
m-29 -377 c-9 -12 -16 -19 -16 -15 0 11 24 47 28 42 2 -2 -3 -14 -12 -27z
m-23 -47 c-6 -3 -26 -27 -45 -52 -26 -34 -39 -45 -49 -38 -11 7 -10 9 4 9 9 0
16 3 15 8 -1 4 12 23 30 42 18 19 32 38 32 43 0 4 5 5 11 1 7 -4 7 -9 2 -13z"/>
<path d="M2296 2844 c-3 -9 -6 -44 -6 -78 0 -171 68 -325 184 -421 l46 -38 35
24 34 24 -45 23 c-43 22 -64 22 -64 1 0 -5 3 -9 8 -8 13 2 52 -13 52 -20 0
-13 -12 -20 -26 -14 -8 3 -11 9 -8 14 3 5 -2 9 -10 9 -23 0 -72 45 -57 54 6 4
11 4 10 -1 -3 -20 2 -27 11 -13 7 11 10 11 10 2 0 -7 5 -10 11 -7 6 4 -13 31
-46 66 -91 95 -144 242 -128 355 6 44 0 58 -11 28z m139 -412 c-3 -3 -11 0
-18 7 -9 10 -8 11 6 5 10 -3 15 -9 12 -12z"/>
<path d="M517 2478 c-105 -215 -154 -398 -164 -608 -11 -256 41 -479 159 -678
101 -170 384 -382 578 -432 75 -19 74 -17 51 -46 l-20 -26 26 -34 c14 -19 35
-36 47 -39 72 -15 2159 -336 2168 -333 5 2 46 91 90 198 43 107 201 494 350
859 l271 663 -31 31 -31 31 -278 -23 c-153 -12 -303 -25 -333 -28 -53 -5 -56
-4 -57 18 -4 45 -64 148 -119 202 -153 151 -378 180 -577 74 -112 -59 -212
-202 -224 -320 l-6 -55 -51 -5 c-28 -3 -150 -13 -271 -23 l-220 -17 -183 -292
c-100 -160 -182 -294 -182 -298 0 -3 7 -4 15 -1 8 4 13 9 10 13 -7 13 26 52
37 45 7 -5 9 -1 5 9 -3 9 7 33 26 59 17 24 32 45 32 48 4 20 49 79 57 73 7 -4
6 -10 -3 -17 -8 -6 -15 -17 -17 -24 -1 -8 -15 -29 -30 -48 -15 -19 -27 -38
-27 -42 0 -18 -77 -132 -86 -127 -9 6 -13 -8 -10 -34 2 -8 -2 -10 -10 -5 -7 4
-10 3 -6 -3 4 -6 0 -14 -9 -17 -8 -3 -13 -10 -10 -14 3 -5 -4 -19 -15 -30 -11
-12 -16 -22 -12 -22 4 0 1 -6 -8 -13 -9 -7 -17 -16 -19 -22 -8 -30 -24 -54
-32 -49 -5 3 -8 2 -7 -3 1 -4 -3 -21 -10 -37 -8 -20 -15 -26 -22 -19 -9 9 43
105 127 230 21 31 21 35 7 93 -53 233 -192 443 -354 536 -30 17 -86 50 -126
73 -157 91 -275 205 -343 333 -36 68 -70 193 -70 260 0 77 -22 60 -83 -64z
m59 66 c-52 -137 -60 -301 -24 -539 11 -77 21 -147 22 -157 1 -9 8 -24 16 -32
26 -32 0 -28 -73 12 l-75 40 -1 -111 c0 -62 4 -130 10 -152 6 -22 15 -61 21
-87 6 -27 15 -48 19 -48 5 0 9 -8 9 -18 0 -10 3 -22 8 -26 4 -4 7 -11 8 -14 1
-16 39 -112 44 -112 3 0 5 13 5 29 1 16 -2 28 -5 26 -3 -2 -10 8 -17 21 -14
30 -11 30 51 -5 57 -32 171 -75 229 -85 20 -4 37 -11 37 -15 0 -5 11 -24 24
-44 13 -19 21 -39 18 -43 -4 -4 -1 -4 7 1 9 5 12 4 10 -4 -7 -19 -23 -16 -35
8 -6 11 -14 18 -18 14 -4 -4 -5 -1 -2 7 6 17 0 28 -28 50 -49 39 19 -72 91
-148 7 -7 16 -19 20 -27 5 -7 15 -15 23 -17 8 -2 20 -10 27 -18 7 -8 13 -10
13 -5 0 6 -5 16 -12 23 -7 7 -8 12 -2 12 5 0 22 -14 38 -30 34 -35 30 -36 -76
-16 -85 17 -164 46 -230 86 -25 16 -48 26 -51 24 -2 -3 -16 9 -31 27 -18 21
-25 38 -21 53 5 15 4 17 -3 7 -8 -11 -11 -9 -17 10 -4 13 -13 27 -19 32 -8 5
-6 10 4 17 17 11 10 13 -13 4 -12 -4 -7 -19 23 -77 21 -40 45 -73 54 -75 9 -2
14 -7 11 -12 -7 -11 15 -60 27 -60 5 0 6 -4 3 -10 -3 -5 -1 -10 5 -10 8 0 10
-10 6 -27 -4 -16 -3 -23 2 -16 6 9 19 -1 47 -34 50 -60 32 -52 -53 22 -138
122 -217 243 -276 425 -46 144 -60 232 -60 390 1 222 46 409 156 643 28 59 53
107 56 107 2 0 1 -7 -2 -16z m45 -189 c25 -70 73 -149 136 -222 51 -60 190
-168 276 -214 51 -27 56 -33 45 -47 -12 -15 -11 -16 4 -3 15 11 24 9 64 -14
54 -32 148 -123 193 -188 52 -76 107 -200 131 -296 l22 -90 -83 -133 c-45 -73
-93 -150 -106 -171 -19 -31 -26 -35 -37 -25 -7 7 -13 17 -12 23 3 19 17 35 26
30 5 -3 12 -1 15 5 4 6 3 9 -2 8 -4 -1 -19 3 -33 10 -22 12 -23 11 -8 -1 17
-13 17 -15 0 -29 -18 -17 -46 -13 -36 4 4 6 2 8 -4 4 -6 -3 -13 -2 -16 3 -9
14 20 21 35 8 11 -10 11 -9 0 5 -10 14 -18 15 -32 7 -18 -9 -23 -5 -20 14 1 5
-3 6 -8 3 -11 -7 -35 20 -27 32 3 6 -2 9 -12 8 -9 0 -16 5 -15 11 2 7 -2 12
-8 10 -6 -1 -16 5 -22 15 -8 13 -4 31 20 85 18 37 39 97 48 133 19 73 34 251
23 277 -3 10 -7 -17 -7 -60 -1 -99 -24 -211 -63 -307 -39 -94 -46 -104 -65
-89 -8 7 -12 18 -9 25 3 7 1 16 -5 20 -6 3 -8 13 -5 21 3 8 2 12 -3 9 -4 -3
-18 6 -31 19 -13 13 -26 22 -30 20 -9 -5 -23 21 -24 45 -1 8 -9 14 -19 13 -12
0 -16 4 -13 13 3 8 0 13 -7 11 -17 -3 -13 26 18 128 22 73 28 114 30 215 l3
125 -8 -105 c-4 -58 -13 -127 -19 -155 -16 -72 -52 -165 -63 -165 -6 0 -7 8
-4 17 4 10 4 14 0 10 -7 -7 -28 22 -40 56 -3 9 -11 17 -17 17 -6 0 -7 3 -4 7
4 3 2 12 -4 19 -6 8 -8 21 -5 30 6 15 4 15 -11 3 -12 -10 -15 -10 -9 -1 4 7 2
19 -4 27 -6 8 -8 20 -4 27 5 8 1 8 -11 -2 -17 -14 -18 -13 -12 2 3 9 1 18 -5
20 -6 2 -2 18 11 38 32 52 61 156 60 214 -1 48 -2 47 -13 -29 -19 -118 -95
-255 -83 -150 1 11 -3 19 -10 18 -6 -1 -14 11 -18 27 -4 16 -11 32 -16 35 -5
4 -9 13 -9 21 0 14 2 14 15 0 8 -8 15 -19 15 -25 0 -6 5 -11 10 -11 15 0 12
15 -10 43 -12 14 -25 40 -31 57 -6 17 -16 27 -22 23 -5 -3 -7 -1 -4 4 4 6 0
24 -8 40 -25 50 -40 180 -40 345 0 86 -3 154 -7 151 -5 -2 -3 8 2 22 6 15 11
38 11 53 1 15 5 0 10 -33 5 -33 18 -87 30 -120z m-62 -77 c0 -336 106 -635
333 -945 86 -117 227 -272 312 -342 36 -30 66 -60 66 -65 0 -6 -9 -21 -18 -34
l-18 -24 -78 73 c-75 70 -206 223 -276 321 -18 26 -36 45 -40 43 -29 -18 -295
88 -269 107 11 8 10 9 -3 4 -22 -7 -50 3 -42 15 3 5 1 9 -5 9 -5 0 -13 15 -16
33 -4 17 -11 37 -15 42 -17 24 -33 118 -35 218 -2 59 0 107 4 107 3 0 37 -17
76 -38 63 -34 70 -40 71 -70 1 -17 6 -38 11 -45 5 -6 15 -31 23 -54 7 -23 17
-40 23 -36 5 3 6 -4 2 -18 -4 -17 -3 -20 3 -10 8 11 12 10 21 -8 9 -16 9 -21
-1 -21 -22 0 -140 59 -135 67 3 5 -6 9 -19 9 -19 2 -22 -1 -14 -11 8 -10 7
-15 -2 -18 -7 -3 -4 -5 7 -4 23 2 195 -74 195 -87 0 -4 -7 -6 -15 -2 -19 7
-19 -1 0 -20 9 -9 15 -11 15 -4 0 6 5 8 12 4 7 -5 5 -12 -8 -22 -12 -9 -13
-13 -4 -10 14 4 68 -52 71 -73 1 -5 2 -14 3 -20 1 -11 37 -41 43 -35 2 1 -24
49 -58 106 -149 249 -239 567 -239 843 0 75 8 157 16 157 1 0 3 -64 3 -142z
m2288 66 c-3 -3 -12 -4 -19 -1 -8 3 -5 6 6 6 11 1 17 -2 13 -5z m135 -25 c123
-26 249 -129 299 -242 14 -35 29 -55 37 -52 6 2 12 0 12 -5 0 -6 -1 -10 -2
-11 -7 -1 -97 -9 -213 -19 -71 -6 -209 -17 -305 -25 -362 -31 -323 -30 -311
-7 6 11 11 30 11 41 0 12 4 21 9 21 5 0 12 17 16 37 5 28 9 33 17 22 8 -12 9
-12 5 1 -4 15 32 65 64 87 18 14 53 7 43 -8 -3 -5 2 -6 11 -3 14 6 12 9 -9 23
-24 16 -24 17 -6 29 11 6 27 9 37 6 13 -4 14 -3 5 3 -10 7 -1 15 33 27 65 25
75 26 228 24 20 -1 25 -3 15 -10 -8 -5 -4 -6 13 -3 17 4 32 1 41 -9 9 -8 18
-13 21 -10 6 6 77 -35 77 -45 0 -4 -5 -12 -10 -17 -7 -7 -6 -11 4 -11 8 0 13
4 10 9 -13 20 15 4 56 -33 25 -22 39 -38 33 -34 -9 4 -13 -2 -12 -17 0 -13 3
-17 6 -10 8 21 19 14 33 -23 8 -19 17 -35 22 -35 12 0 10 6 -17 58 -35 66 -70
106 -85 97 -8 -5 -11 -4 -7 2 10 15 -32 49 -98 79 -85 40 -215 46 -308 15
-143 -48 -249 -165 -273 -303 -3 -22 -12 -38 -20 -38 -31 0 21 151 78 228 101
135 269 197 440 161z m-277 -9 c-3 -5 -12 -10 -18 -10 -7 0 -6 4 3 10 19 12
23 12 15 0z m-125 -85 c-13 -14 -28 -25 -34 -25 -6 0 3 11 19 25 39 31 45 32
15 0z m614 9 c3 -8 2 -12 -4 -9 -6 3 -10 10 -10 16 0 14 7 11 14 -7z m107
-126 c8 -15 8 -18 0 -14 -6 4 -16 16 -22 28 -8 15 -8 18 0 14 6 -4 16 -16 22
-28z m660 -170 c-23 -57 -46 -112 -51 -123 -5 -11 -47 -112 -94 -225 -46 -113
-119 -288 -161 -390 -43 -102 -108 -259 -145 -350 -37 -91 -89 -214 -115 -275
-25 -60 -56 -136 -68 -167 -24 -64 -23 -64 -121 -48 -317 51 -383 61 -398 57
-10 -3 -16 -2 -13 2 4 7 -114 28 -210 37 -22 3 -103 15 -180 28 -77 13 -203
33 -280 45 -77 12 -194 30 -260 41 -66 10 -196 31 -290 45 -276 43 -430 67
-433 70 -2 1 7 19 19 39 19 33 39 40 39 15 0 -6 -4 -8 -8 -5 -4 2 -8 -3 -8
-13 0 -9 7 -18 16 -18 13 -1 243 -35 325 -48 125 -19 524 -78 585 -86 41 -6
140 -21 220 -35 80 -14 163 -27 185 -29 22 -2 63 -8 90 -13 28 -6 83 -13 123
-17 39 -4 72 -10 72 -14 0 -4 16 -5 35 -3 20 2 35 0 35 -6 0 -6 19 -10 43 -10
23 0 104 -9 180 -21 77 -12 148 -21 158 -21 21 0 51 59 119 232 19 47 38 84
42 82 4 -3 5 3 1 12 -4 11 -3 15 4 11 7 -4 10 0 7 10 -2 10 5 29 17 43 11 14
17 19 13 11 -5 -10 -3 -12 5 -6 9 5 10 10 2 18 -14 14 -14 30 -1 22 6 -3 7 1
4 9 -3 9 -1 16 5 16 6 0 11 12 11 28 0 21 2 24 10 12 8 -12 10 -11 8 5 -3 39
2 56 14 49 6 -4 8 -3 4 4 -8 13 14 63 25 56 5 -3 6 1 3 9 -8 22 47 152 58 135
5 -8 6 -2 2 16 -5 22 -4 27 6 21 8 -5 11 -4 6 3 -8 13 14 63 25 57 4 -3 5 5 1
17 -4 16 -2 19 8 13 8 -5 11 -4 7 3 -11 16 34 126 45 110 5 -8 6 -2 2 15 -4
17 -2 27 5 27 6 0 10 3 10 8 -1 4 -1 16 0 27 1 17 3 18 12 5 8 -12 9 -10 4 8
-4 12 -2 22 4 22 6 0 7 7 4 17 -5 12 -3 14 7 8 8 -5 11 -4 6 3 -7 11 12 62 27
73 5 3 8 8 6 10 -7 11 24 78 33 73 7 -5 8 -2 4 5 -9 14 12 71 25 71 5 0 5 7 2
17 -4 11 -3 14 6 9 8 -5 11 -3 9 5 -4 18 32 110 40 105 4 -2 8 6 9 17 1 12 4
34 8 50 7 27 7 27 -41 27 -27 0 -109 -5 -183 -11 -98 -9 -139 -9 -152 -1 -10
6 -19 7 -21 2 -6 -15 -150 -31 -167 -17 -12 10 -13 9 -7 -2 7 -11 -1 -13 -41
-8 -28 3 -55 1 -60 -4 -5 -5 -68 -10 -140 -11 -72 -2 -129 -6 -127 -9 5 -8
-378 -32 -398 -24 -11 4 -18 3 -18 -4 0 -8 -17 -12 -47 -11 -27 1 -73 -1 -103
-4 -67 -6 -319 -25 -340 -25 -8 0 -49 -2 -90 -5 -45 -3 -65 -1 -49 4 23 7 301
30 339 28 8 0 49 4 90 10 41 6 91 10 112 9 20 -1 34 1 32 4 -2 4 23 9 56 11
33 1 60 0 60 -4 0 -5 5 -8 11 -8 5 0 8 4 5 8 -3 5 68 14 157 21 89 7 232 19
317 27 85 8 210 15 276 17 67 1 120 5 118 8 -2 3 43 9 99 13 56 4 165 13 242
20 77 6 142 11 144 9 2 -1 -15 -49 -38 -105z m79 61 c7 -11 9 -23 6 -27 -3 -3
-6 0 -6 6 0 7 -4 12 -9 12 -5 0 -7 -9 -4 -20 3 -11 1 -20 -4 -20 -5 0 -10 -6
-10 -12 0 -7 -10 -41 -23 -75 -22 -62 -39 -80 -41 -45 0 11 -2 12 -6 4 -3 -7
1 -19 7 -27 10 -12 10 -18 0 -30 -7 -8 -10 -15 -6 -15 3 0 -3 -16 -14 -36 -11
-19 -17 -40 -14 -46 4 -6 3 -8 -3 -5 -10 6 -29 -37 -25 -55 1 -5 -2 -8 -8 -8
-5 0 -10 -10 -10 -23 0 -12 -6 -31 -14 -42 -14 -20 -16 -26 -16 -46 0 -5 -4
-7 -10 -4 -6 4 -7 -1 -3 -11 4 -10 0 -20 -11 -26 -13 -8 -15 -13 -5 -24 7 -8
7 -14 1 -14 -11 0 -25 -37 -22 -59 1 -7 -3 -10 -8 -7 -6 3 -13 -1 -16 -10 -3
-9 -2 -12 5 -8 6 3 3 -8 -6 -25 -9 -18 -21 -29 -26 -25 -7 4 -6 -2 1 -16 10
-18 9 -21 -1 -15 -9 6 -11 3 -6 -9 4 -9 3 -15 -1 -12 -4 2 -12 -7 -19 -20 -6
-13 -7 -22 -2 -19 8 6 -13 -51 -32 -84 -17 -29 -32 -76 -30 -90 1 -8 -2 -10
-10 -5 -8 5 -11 2 -7 -8 4 -8 -2 -30 -13 -47 -10 -17 -18 -35 -17 -39 1 -4 -6
-22 -15 -39 -10 -18 -18 -35 -18 -38 -1 -17 -22 -64 -27 -61 -4 2 -8 -10 -9
-27 -1 -17 -8 -34 -14 -38 -6 -4 -8 -12 -4 -19 6 -9 4 -11 -5 -5 -10 6 -12 4
-7 -9 4 -11 3 -15 -4 -10 -7 4 -9 0 -5 -14 4 -12 1 -26 -9 -36 -9 -9 -13 -20
-10 -26 3 -5 1 -10 -4 -10 -6 0 -11 -7 -11 -15 0 -19 -27 -74 -45 -92 -7 -7
-11 -23 -8 -35 4 -19 3 -20 -7 -8 -10 12 -11 11 -7 -7 3 -13 1 -23 -5 -23 -5
0 -8 -8 -7 -17 3 -32 -1 -44 -12 -38 -6 4 -10 1 -8 -6 4 -36 -1 -43 -19 -26
-24 22 -38 22 -21 0 13 -15 12 -15 -7 -5 -12 6 -24 9 -27 6 -8 -8 -47 6 -47
16 0 5 16 6 35 3 34 -6 35 -5 65 58 16 35 30 70 30 77 0 7 14 38 30 68 17 30
28 59 25 64 -3 5 -1 11 5 15 6 4 7 11 4 17 -5 7 -2 8 5 4 7 -5 10 -14 8 -20
-3 -7 -1 -19 4 -27 6 -10 8 -4 5 17 -2 17 -7 37 -11 44 -5 8 -4 11 2 7 6 -4
14 0 17 9 3 9 2 12 -5 8 -6 -3 -4 8 5 24 9 17 16 38 16 47 0 10 5 13 12 9 8
-5 9 -2 5 10 -4 11 -3 15 4 11 6 -4 9 -1 8 6 -4 17 7 49 37 117 13 29 24 57
24 63 0 6 4 7 10 4 5 -3 7 0 5 7 -8 19 41 135 48 117 4 -8 6 -3 5 11 0 14 2
33 7 43 6 14 10 15 23 5 14 -12 14 -10 3 11 -7 13 -9 26 -5 30 5 3 10 13 12
21 2 8 7 16 12 18 5 2 6 11 3 19 -5 12 -2 15 10 10 15 -6 16 -4 6 14 -8 15 -8
19 0 15 7 -4 11 1 11 13 0 24 46 117 52 105 3 -5 3 -3 2 4 -4 15 32 125 52
162 8 14 20 43 28 65 7 22 18 40 24 40 6 0 14 4 19 8 4 5 4 7 -2 5 -15 -5 -19
5 -11 30 4 12 12 20 17 16 6 -3 7 5 3 23 -6 24 -5 26 8 16 15 -13 28 -8 28 11
0 6 -5 4 -10 -4 -24 -35 6 54 63 190 9 23 12 30 16 45 3 12 21 3 31 -16z
m-167 -116 c-24 -60 -87 -209 -138 -333 -51 -124 -168 -405 -260 -625 -92
-220 -176 -426 -188 -457 -19 -51 -24 -56 -47 -52 -23 4 -946 142 -1100 164
-36 5 -260 39 -498 75 -238 36 -435 65 -438 65 -3 0 3 12 14 28 11 15 169 266
352 557 183 292 333 531 334 532 2 3 268 23 816 63 593 43 814 59 900 66 70 5
244 19 282 23 14 1 9 -18 -29 -106z m-1436 55 c-3 -8 -6 -5 -6 6 -1 11 2 17 5
13 3 -3 4 -12 1 -19z m-527 -79 c0 -5 -4 -7 -10 -4 -5 3 -10 2 -10 -4 0 -20
-63 -110 -73 -104 -6 4 -8 0 -4 -11 4 -10 1 -19 -8 -22 -8 -4 -12 -10 -9 -15
3 -5 -2 -12 -10 -15 -9 -3 -13 -10 -11 -15 3 -4 -2 -17 -12 -27 -10 -10 -19
-25 -21 -33 -2 -8 -8 -15 -13 -17 -5 -2 -9 -10 -9 -17 0 -22 -16 -26 -17 -4
-1 10 2 19 8 19 5 0 9 5 9 10 0 6 17 37 37 68 21 31 41 65 45 75 5 10 13 15
19 11 7 -4 10 -1 7 7 -5 14 25 67 47 81 6 5 6 8 0 8 -11 0 16 20 28 20 4 0 7
-5 7 -11z m-899 -641 c31 -43 17 -34 -21 15 -19 23 -26 36 -17 28 10 -8 27
-27 38 -43z m-75 -63 c-3 -8 0 -14 7 -12 7 1 11 -4 9 -11 -1 -8 2 -11 7 -8 10
7 24 -10 27 -31 1 -7 -2 -15 -7 -19 -5 -3 -9 1 -9 8 0 7 -14 24 -31 39 -18 15
-28 32 -25 38 11 16 29 13 22 -4z m-202 -54 c75 -42 182 -78 275 -92 44 -7 81
-16 81 -21 0 -4 14 -20 30 -35 17 -14 30 -33 30 -42 -1 -13 -3 -12 -15 3 -9
12 -15 15 -15 7 0 -8 -9 -2 -21 13 -11 14 -17 30 -14 36 3 5 1 10 -4 10 -6 0
-11 -5 -11 -11 0 -5 -5 -7 -10 -4 -6 4 -7 11 -4 17 5 7 2 8 -5 3 -9 -5 -2 -18
25 -46 20 -21 42 -35 47 -32 6 4 8 -1 4 -11 -4 -10 -3 -15 3 -11 6 3 10 1 10
-4 0 -6 5 -11 11 -11 5 0 7 5 4 10 -14 22 7 31 29 13 54 -48 54 -48 77 -8 14
23 25 33 31 27 13 -13 0 -35 -14 -26 -7 4 -8 2 -4 -4 8 -13 -39 -92 -54 -92
-6 0 -9 -3 -9 -7 4 -25 -2 -36 -12 -26 -9 9 -6 20 10 46 24 39 27 55 8 38 -8
-6 -16 -8 -20 -5 -3 3 -4 -2 -1 -13 2 -10 -4 -29 -15 -42 l-19 -25 -63 18
c-75 21 -215 84 -206 93 4 3 13 0 21 -6 11 -9 16 -9 22 0 4 7 3 9 -4 5 -6 -3
-14 -1 -17 5 -4 5 -14 8 -22 4 -9 -3 -35 6 -59 20 -32 19 -42 30 -39 45 2 11
0 18 -5 15 -5 -3 -12 6 -16 20 -3 14 -15 30 -25 36 -11 5 -19 16 -19 24 0 8
-5 15 -11 15 -5 0 -8 4 -5 9 3 4 -6 19 -19 31 -24 23 -32 40 -18 40 3 0 29
-13 57 -29z m608 -131 c-9 -16 -21 -26 -26 -23 -5 4 -7 -1 -3 -10 7 -18 -8
-33 -18 -17 -3 5 6 30 21 56 17 29 29 41 34 34 4 -7 0 -25 -8 -40z m-62 -325
c5 3 12 1 15 -5 4 -6 16 -8 27 -4 11 3 18 2 15 -3 -3 -5 10 -7 29 -5 18 2 42
1 51 -3 21 -9 77 -17 113 -17 23 1 23 0 5 -8 -15 -7 -9 -9 25 -9 25 0 59 -2
75 -5 52 -9 109 -17 145 -21 19 -2 44 -6 55 -8 11 -3 41 -9 68 -13 26 -3 50
-11 53 -15 3 -5 10 -9 15 -9 6 0 8 4 5 9 -4 5 10 5 32 0 20 -5 63 -11 96 -14
32 -3 79 -11 105 -16 46 -10 61 -12 138 -24 24 -3 45 -10 47 -14 3 -4 31 -7
63 -5 36 1 66 -3 80 -12 26 -16 57 -20 33 -4 -11 8 -9 9 10 5 14 -3 35 -7 47
-8 12 0 19 -5 17 -9 -5 -7 22 -12 69 -11 9 0 17 -4 17 -8 0 -5 12 -8 28 -8 90
1 311 -29 294 -40 -6 -3 20 -7 56 -8 93 -3 112 -6 113 -18 0 -5 -9 -11 -21
-13 -11 -2 -20 0 -20 5 0 4 -17 9 -37 10 -21 1 -51 4 -68 6 -16 2 -43 4 -58 5
-16 1 -26 6 -22 12 4 6 -5 10 -22 10 -68 -2 -279 25 -318 40 -13 5 -26 6 -31
2 -4 -4 -4 -1 1 7 7 11 1 13 -32 8 -27 -5 -45 -2 -59 8 -10 8 -26 14 -34 15
-13 0 -13 -1 0 -11 11 -8 8 -9 -15 -5 -16 3 -56 8 -87 12 -37 4 -55 10 -51 17
4 6 0 8 -8 5 -8 -3 -39 -1 -69 4 -30 5 -84 13 -120 18 -36 6 -81 13 -100 16
-19 3 -48 7 -65 9 -103 12 -142 19 -161 30 -13 8 -38 11 -69 8 -37 -5 -46 -3
-40 7 5 9 2 10 -14 5 -28 -8 -112 5 -105 17 4 6 -8 7 -29 3 -20 -4 -44 -2 -56
5 -12 6 -56 13 -97 15 -41 2 -89 8 -107 14 -17 6 -50 12 -72 15 -22 3 -42 5
-45 6 -3 2 -9 2 -13 1 -5 -1 -6 3 -3 7 3 6 25 6 52 1 25 -5 50 -7 54 -4z"/>
<path d="M497 2257 c-14 -62 -28 -150 -53 -334 -3 -29 -1 -43 6 -43 6 0 8 5 4
12 -5 8 -2 9 10 5 14 -6 15 -3 6 13 -6 11 -9 24 -6 28 7 11 20 134 19 172 -1
25 1 30 8 20 7 -11 9 -7 7 15 -1 17 4 63 11 103 17 96 9 101 -12 9z"/>
<path d="M512 2105 c0 -11 4 -31 8 -45 6 -20 8 -21 8 -5 0 11 -4 31 -8 45 -6
20 -8 21 -8 5z"/>
<path d="M470 1401 c0 -6 5 -13 10 -16 6 -4 7 -11 4 -17 -4 -7 -2 -8 4 -4 9 5
9 13 2 27 -11 20 -20 25 -20 10z"/>
<path d="M505 1325 c4 -11 8 -28 9 -37 0 -9 3 -16 6 -16 18 1 23 -3 12 -11
-11 -7 -11 -9 2 -14 26 -10 24 6 -7 53 -16 25 -26 36 -22 25z"/>
<path d="M628 1323 c7 -3 16 -2 19 1 4 3 -2 6 -13 5 -11 0 -14 -3 -6 -6z"/>
<path d="M636 1091 c-3 -5 2 -15 12 -22 15 -12 16 -12 5 2 -7 9 -10 19 -6 22
3 4 4 7 0 7 -3 0 -8 -4 -11 -9z"/>
<path d="M584 2368 c1 -13 10 -40 20 -61 9 -21 14 -42 11 -47 -4 -6 -1 -10 4
-10 6 0 11 -3 10 -7 -2 -17 14 -52 21 -48 9 6 -38 136 -52 146 -5 3 -6 13 -3
21 4 9 2 19 -4 22 -6 4 -9 -3 -7 -16z"/>
<path d="M654 2179 c-3 -6 4 -25 17 -42 12 -18 32 -45 43 -62 24 -34 47 -54
61 -54 6 0 -2 11 -18 24 -29 26 -42 72 -19 67 8 -1 11 2 7 8 -5 8 -11 7 -22
-2 -12 -10 -17 -9 -24 4 -5 10 -15 23 -23 30 -7 7 -11 19 -8 26 5 15 -4 16
-14 1z"/>
<path d="M621 2054 c0 -11 3 -14 6 -6 3 7 2 16 -1 19 -3 4 -6 -2 -5 -13z"/>
<path d="M796 1997 c3 -10 9 -15 12 -12 3 3 0 11 -7 18 -10 9 -11 8 -5 -6z"/>
<path d="M830 1960 c0 -5 5 -10 11 -10 5 0 7 5 4 10 -3 6 -8 10 -11 10 -2 0
-4 -4 -4 -10z"/>
<path d="M877 1943 c-8 -12 23 -46 64 -71 58 -35 59 -25 1 13 -29 20 -50 40
-47 45 3 5 1 11 -4 14 -5 4 -12 3 -14 -1z"/>
<path d="M1010 1840 c8 -5 20 -10 25 -10 6 0 3 5 -5 10 -8 5 -19 10 -25 10 -5
0 -3 -5 5 -10z"/>
<path d="M1040 1810 c0 -5 5 -10 10 -10 6 0 10 5 10 10 0 6 -4 10 -10 10 -5 0
-10 -4 -10 -10z"/>
<path d="M1110 1770 c0 -5 4 -10 8 -10 5 0 26 -16 48 -35 21 -19 44 -35 51
-35 7 0 17 -8 22 -17 6 -10 11 -13 11 -7 0 6 -9 19 -20 29 -11 10 -20 16 -20
13 0 -4 -14 7 -32 23 -39 37 -68 54 -68 39z"/>
<path d="M710 1763 c0 -6 8 -17 18 -24 16 -13 16 -13 2 6 -8 11 -16 22 -17 24
-2 2 -3 0 -3 -6z"/>
<path d="M770 1679 c0 -9 7 -22 15 -29 8 -7 15 -17 15 -22 0 -14 62 -88 73
-88 6 0 1 10 -10 23 -11 12 -37 47 -57 77 -20 30 -36 47 -36 39z"/>
<path d="M1181 1664 c0 -11 3 -14 6 -6 3 7 2 16 -1 19 -3 4 -6 -2 -5 -13z"/>
<path d="M1260 1656 c0 -2 7 -9 15 -16 13 -11 14 -10 9 4 -5 14 -24 23 -24 12z"/>
<path d="M1304 1613 c2 -9 8 -18 15 -19 6 -1 7 0 1 3 -5 2 -8 9 -5 13 3 5 1
11 -4 14 -5 4 -8 -2 -7 -11z"/>
<path d="M1320 1571 c0 -6 5 -13 10 -16 6 -3 10 1 10 9 0 9 -4 16 -10 16 -5 0
-10 -4 -10 -9z"/>
<path d="M1351 1534 c0 -11 3 -14 6 -6 3 7 2 16 -1 19 -3 4 -6 -2 -5 -13z"/>
<path d="M960 1463 c0 -14 146 -96 161 -91 8 3 -52 39 -118 72 -13 6 -23 14
-23 19 0 4 -4 7 -10 7 -5 0 -10 -3 -10 -7z"/>
<path d="M1190 1342 c0 -7 111 -46 163 -57 15 -3 27 -1 27 5 0 5 -10 10 -23
10 -13 0 -56 11 -95 24 -40 14 -72 22 -72 18z"/>
<path d="M1428 1343 c6 -3 10 -9 6 -14 -8 -14 2 -11 14 4 8 10 6 13 -11 14
-12 0 -16 -1 -9 -4z"/>
<path d="M1415 1289 l-30 -7 32 -1 c26 -1 31 -4 26 -18 -4 -11 -3 -14 5 -9 13
8 16 33 5 39 -5 2 -21 0 -38 -4z"/>
<path d="M1171 1083 c7 -12 15 -20 18 -17 3 2 -3 12 -13 22 -17 16 -18 16 -5
-5z"/>
<path d="M540 1660 c-9 -6 -10 -10 -3 -10 6 0 15 5 18 10 8 12 4 12 -15 0z"/>
<path d="M486 1573 c-6 -14 -5 -15 5 -6 7 7 10 15 7 18 -3 3 -9 -2 -12 -12z"/>
<path d="M727 1413 c11 -29 45 -84 49 -80 7 7 -18 67 -27 67 -5 0 -9 7 -9 15
0 8 -4 15 -10 15 -5 0 -6 -8 -3 -17z"/>
<path d="M936 1231 c-3 -5 2 -15 12 -22 15 -12 16 -12 5 2 -7 9 -10 19 -6 22
3 4 4 7 0 7 -3 0 -8 -4 -11 -9z"/>
<path d="M1170 970 c5 -10 16 -22 23 -26 9 -6 9 -5 0 8 -7 8 -10 17 -7 20 2 3
-2 8 -11 12 -13 4 -14 2 -5 -14z"/>
<path d="M2838 2253 c7 -3 16 -2 19 1 4 3 -2 6 -13 5 -11 0 -14 -3 -6 -6z"/>
<path d="M2791 2231 c-7 -5 -9 -11 -5 -14 5 -3 15 1 22 9 14 16 5 18 -17 5z"/>
<path d="M2838 2233 c6 -2 18 -2 25 0 6 3 1 5 -13 5 -14 0 -19 -2 -12 -5z"/>
<path d="M2943 2233 c9 -2 25 -2 35 0 9 3 1 5 -18 5 -19 0 -27 -2 -17 -5z"/>
<path d="M2722 2200 c-12 -5 -30 -7 -40 -4 -15 5 -15 4 -1 -5 12 -8 27 -7 55
3 22 8 32 15 24 15 -8 0 -25 -4 -38 -9z"/>
<path d="M3070 2195 c14 -7 27 -11 30 -9 6 7 -22 24 -40 23 -9 0 -5 -6 10 -14z"/>
<path d="M2577 1980 c-3 -11 -1 -20 4 -20 5 0 9 9 9 20 0 11 -2 20 -4 20 -2 0
-6 -9 -9 -20z"/>
<path d="M2668 1923 c7 -3 16 -2 19 1 4 3 -2 6 -13 5 -11 0 -14 -3 -6 -6z"/>
<path d="M3566 1085 c-9 -26 -7 -32 5 -12 6 10 9 21 6 23 -2 3 -7 -2 -11 -11z"/>
<path d="M3550 1039 c0 -5 5 -7 10 -4 6 3 10 8 10 11 0 2 -4 4 -10 4 -5 0 -10
-5 -10 -11z"/>
<path d="M2828 443 c7 -3 16 -2 19 1 4 3 -2 6 -13 5 -11 0 -14 -3 -6 -6z"/>
<path d="M3597 1004 c-3 -5 1 -15 9 -22 16 -14 18 -5 5 17 -5 7 -11 9 -14 5z"/>
<path d="M3536 827 c3 -10 9 -15 12 -12 3 3 0 11 -7 18 -10 9 -11 8 -5 -6z"/>
<path d="M3643 1928 c-22 -11 -36 -39 -129 -261 -36 -87 -49 -129 -41 -132 7
-2 50 -6 97 -10 62 -4 90 -2 102 7 17 13 168 367 168 394 0 11 -19 14 -87 13
-49 0 -98 -5 -110 -11z m170 -25 c-4 -10 -12 -27 -20 -39 -7 -11 -15 -35 -17
-53 -5 -41 -21 -60 -38 -43 -8 8 -8 15 2 27 11 13 15 13 21 3 6 -9 9 -9 9 -1
0 29 -21 16 -100 -59 -47 -44 -76 -76 -65 -70 24 13 75 60 75 70 0 4 9 13 21
20 16 10 24 10 35 1 15 -12 20 -34 5 -25 -5 3 -9 0 -8 -7 1 -36 -4 -57 -13
-52 -5 3 -10 -2 -10 -12 0 -14 -2 -15 -9 -4 -7 11 -9 8 -10 -10 -2 -50 -6 -69
-15 -69 -5 0 -7 -3 -3 -6 3 -4 0 -13 -8 -20 -16 -16 -157 -16 -147 0 3 5 -2 7
-11 3 -28 -10 -9 18 26 39 l32 19 -27 3 -27 3 19 37 c11 20 20 40 20 44 0 4
14 37 30 73 17 36 30 70 30 75 0 6 5 10 11 10 5 0 7 -5 3 -12 -5 -7 -3 -8 5
-3 9 5 10 10 2 18 -17 17 -13 31 5 16 15 -12 16 -11 9 10 -6 20 -4 23 9 18 10
-4 15 -3 11 3 -4 6 24 10 74 10 72 0 80 -2 74 -17z m-288 -303 c-3 -5 -11 -10
-16 -10 -6 0 -7 5 -4 10 3 6 11 10 16 10 6 0 7 -4 4 -10z"/>
<path d="M3701 1714 c0 -11 3 -14 6 -6 3 7 2 16 -1 19 -3 4 -6 -2 -5 -13z"/>
<path d="M3410 1907 c-18 -9 -46 -58 -106 -187 -45 -96 -79 -178 -77 -182 7
-14 200 -9 211 5 9 11 162 363 162 373 0 10 -168 2 -190 -9z m10 -27 c-24 -15
-36 -11 -14 4 10 8 21 12 24 10 2 -3 -2 -9 -10 -14z m94 8 c-5 -8 0 -7 11 2
17 14 18 13 12 -5 -7 -19 -6 -19 7 -2 8 10 17 14 20 9 7 -11 -15 -72 -26 -72
-4 0 -8 -6 -8 -12 0 -23 -43 -117 -52 -112 -4 3 -5 -2 -2 -10 3 -9 1 -16 -6
-16 -6 0 -8 -4 -5 -10 3 -5 2 -10 -4 -10 -6 0 -7 -7 -4 -17 4 -11 3 -14 -5 -9
-7 4 -10 2 -7 -6 3 -8 -3 -23 -13 -34 -10 -10 -17 -25 -16 -32 1 -7 0 -9 -2
-4 -2 5 -40 7 -84 6 -79 -2 -80 -2 -68 19 7 12 11 25 10 29 -1 4 8 13 19 19
18 9 19 13 8 21 -11 7 -11 11 -1 15 6 2 12 12 12 20 0 22 51 133 59 128 4 -2
8 6 8 17 1 12 7 26 14 32 9 8 10 7 4 -4 -5 -8 7 0 25 18 25 23 43 32 67 32 25
0 32 -3 27 -12z"/>
<path d="M3336 1735 c-3 -8 -1 -15 4 -15 6 0 10 7 10 15 0 8 -2 15 -4 15 -2 0
-6 -7 -10 -15z"/>
<path d="M3325 1691 c-3 -5 -2 -12 3 -15 5 -3 9 1 9 9 0 17 -3 19 -12 6z"/>
<path d="M3351 1674 c0 -11 3 -14 6 -6 3 7 2 16 -1 19 -3 4 -6 -2 -5 -13z"/>
<path d="M3375 1590 c-4 -6 1 -7 11 -3 12 4 15 3 10 -5 -4 -7 -3 -12 3 -12 17
0 21 18 5 24 -21 8 -22 8 -29 -4z"/>
<path d="M3205 1903 l-51 -4 -82 -172 c-45 -95 -82 -178 -82 -184 0 -10 25
-13 93 -13 50 0 97 4 102 8 8 5 143 288 172 360 5 12 -30 13 -152 5z m115 -24
c5 -7 -3 -22 -19 -36 -14 -14 -20 -22 -13 -18 17 9 15 1 -8 -40 -11 -19 -20
-37 -20 -40 0 -3 0 -9 0 -14 0 -4 -10 -21 -22 -36 -12 -15 -23 -41 -25 -58 -2
-16 -12 -41 -22 -56 -18 -24 -25 -26 -99 -26 -77 0 -80 1 -69 20 6 11 12 22
12 25 7 27 30 66 46 78 10 7 17 18 13 23 -7 12 12 63 39 102 10 15 20 35 21
44 2 9 9 21 18 27 22 16 139 20 148 5z"/>
<path d="M3176 1848 c3 -5 10 -6 15 -3 13 9 11 12 -6 12 -8 0 -12 -4 -9 -9z"/>
<path d="M2938 1878 c-27 -21 -182 -328 -171 -339 5 -5 50 -9 99 -7 l88 3 83
165 c45 91 82 171 82 178 1 9 -22 12 -82 12 -51 0 -89 -5 -99 -12z m149 -24
c2 -7 -2 -18 -10 -25 -7 -8 -22 -36 -32 -62 -10 -26 -22 -50 -26 -53 -5 -3 -9
-15 -10 -27 -1 -20 -2 -20 -9 3 -8 24 -8 23 -9 -7 -1 -18 -5 -33 -11 -33 -5 0
-6 -7 -3 -17 5 -12 3 -14 -7 -8 -9 5 -11 4 -6 -3 12 -20 -19 -65 -48 -68 -15
-1 -26 2 -26 9 0 8 -3 8 -8 2 -10 -14 -92 -13 -92 2 0 18 33 76 54 95 10 10
15 18 10 18 -5 0 -1 5 9 11 9 6 15 14 12 19 -6 10 34 92 47 98 4 2 4 10 1 18
-4 10 2 17 16 21 11 3 19 8 17 12 -2 3 26 6 62 6 40 0 67 -4 69 -11z"/>
<path d="M3066 1843 c-6 -14 -5 -15 5 -6 7 7 10 15 7 18 -3 3 -9 -2 -12 -12z"/>
<path d="M2934 1799 c-3 -6 -2 -15 3 -20 5 -5 9 -1 9 11 0 23 -2 24 -12 9z"/>
<path d="M2808 1573 c7 -3 16 -2 19 1 4 3 -2 6 -13 5 -11 0 -14 -3 -6 -6z"/>
<path d="M2770 1871 l-55 -6 -82 -155 c-46 -85 -83 -161 -83 -167 0 -10 24
-13 89 -13 l90 0 66 131 c37 73 75 146 86 163 36 59 28 62 -111 47z m87 -25
c1 -1 -1 -15 -6 -32 -5 -17 -14 -28 -24 -28 -10 1 -13 -4 -10 -14 4 -9 2 -13
-4 -9 -5 3 -10 0 -10 -8 0 -8 4 -12 9 -8 6 3 2 -10 -8 -28 -10 -19 -19 -38
-19 -44 -1 -5 -7 -9 -13 -7 -7 1 -12 -3 -11 -10 3 -28 -2 -40 -14 -35 -10 4
-13 -1 -10 -17 3 -12 -1 -27 -9 -33 -16 -14 -105 -25 -130 -17 -16 5 -16 7 -3
28 8 12 12 26 8 29 -3 4 -1 7 5 7 7 0 12 9 12 21 0 12 4 17 11 14 6 -4 9 -1 8
6 -4 22 11 60 22 54 5 -3 6 0 3 8 -3 8 6 28 20 45 15 16 26 37 26 45 0 21 27
40 45 33 9 -3 14 -2 11 3 -4 7 82 4 91 -3z"/>
<path d="M2573 1861 c-39 -3 -74 -8 -76 -11 -7 -7 -177 -311 -177 -316 0 -3
42 -3 93 -2 l92 3 87 160 c48 88 87 163 87 168 1 4 -7 6 -16 5 -10 -1 -50 -4
-90 -7z m29 -23 l51 4 -21 -33 c-12 -19 -29 -33 -37 -33 -8 1 -15 -5 -15 -13
0 -8 4 -12 9 -9 5 4 7 -3 4 -14 -3 -11 -9 -17 -14 -14 -5 3 -9 -6 -9 -19 0
-17 -7 -26 -21 -30 -15 -4 -20 -11 -16 -21 9 -22 -2 -46 -20 -46 -8 0 -11 -4
-8 -10 3 -5 1 -19 -5 -30 -9 -16 -21 -20 -60 -20 -33 0 -50 4 -50 13 0 8 -4 7
-10 -3 -9 -13 -10 -13 -10 0 0 13 -1 13 -10 0 -5 -8 -10 -10 -10 -4 0 16 25
35 34 27 4 -4 4 1 0 11 -6 15 -4 17 6 11 9 -5 11 -4 6 4 -8 12 43 123 53 116
4 -2 11 8 18 21 7 16 8 22 1 17 -13 -7 -5 7 25 49 11 15 24 25 28 22 4 -2 11
1 15 8 5 7 9 8 11 2 2 -6 25 -9 55 -6z m-42 -172 c0 -3 -4 -8 -10 -11 -5 -3
-10 -1 -10 4 0 6 5 11 10 11 6 0 10 -2 10 -4z"/>
<path d="M2601 1794 c0 -11 3 -14 6 -6 3 7 2 16 -1 19 -3 4 -6 -2 -5 -13z"/>
<path d="M2440 1701 c0 -6 4 -13 10 -16 6 -3 7 1 4 9 -7 18 -14 21 -14 7z"/>
<path d="M2295 1828 c-27 -38 -165 -280 -165 -289 0 -5 36 -9 79 -9 76 0 81 1
99 28 23 33 162 279 162 287 0 3 -36 5 -80 5 -71 0 -81 -2 -95 -22z m140 -14
c-10 -8 -15 -14 -11 -14 4 0 -1 -12 -11 -27 -10 -16 -29 -49 -42 -75 -14 -26
-28 -45 -33 -42 -4 3 -5 -1 -3 -8 3 -8 -3 -23 -14 -35 -11 -11 -17 -24 -14
-27 4 -3 1 -6 -6 -6 -7 0 -9 -5 -5 -12 5 -8 2 -9 -9 -5 -10 3 -17 3 -17 -1 0
-4 -25 -7 -55 -7 -30 0 -55 3 -55 8 0 4 4 7 9 7 5 0 11 14 15 31 4 20 10 28
18 23 8 -5 9 -2 5 9 -3 9 -1 19 5 23 7 5 8 2 3 -6 -6 -9 -4 -11 4 -6 7 5 10
15 7 23 -3 8 -2 12 3 9 5 -3 14 8 20 24 5 17 20 44 31 60 12 17 18 30 14 30
-4 0 0 8 9 18 12 13 33 17 83 18 59 1 65 0 49 -12z"/>
<path d="M2356 1708 l-18 -33 21 25 c18 22 26 40 18 40 -1 0 -11 -15 -21 -32z"/>
<path d="M2098 1823 c-25 -29 -168 -269 -168 -282 0 -8 24 -11 82 -9 l82 3 83
145 c45 80 83 148 83 153 0 4 -33 7 -73 7 -58 0 -77 -4 -89 -17z m96 -20 c3
-7 11 -13 18 -13 10 0 10 2 -1 9 -8 5 -9 11 -3 15 5 3 12 -1 15 -9 4 -8 -7
-25 -26 -41 -18 -14 -27 -24 -21 -20 6 3 11 -1 11 -9 0 -8 -4 -12 -8 -9 -8 4
-25 -35 -21 -48 2 -7 -13 -12 -30 -9 -4 0 -5 -5 -2 -13 3 -7 -2 -20 -10 -29
-8 -8 -12 -17 -9 -21 4 -3 -3 -15 -14 -25 -13 -13 -40 -20 -81 -23 l-61 -5 14
27 c8 15 25 41 38 56 13 16 27 39 31 52 4 12 12 19 18 16 7 -4 8 -2 4 4 -4 7
4 24 18 39 15 15 26 35 26 45 0 9 6 19 13 21 24 10 76 4 81 -10z"/>
<path d="M2120 1802 c0 -7 5 -12 11 -12 6 0 9 -7 5 -15 -7 -20 -4 -19 18 7 14
16 15 20 3 15 -8 -3 -20 0 -26 6 -8 8 -11 8 -11 -1z"/>
<path d="M2043 1669 c-2 -23 3 -25 10 -4 4 8 3 16 -1 19 -4 3 -9 -4 -9 -15z"/>
<path d="M1928 1822 c-10 -4 -50 -61 -89 -127 -39 -66 -77 -127 -85 -136 -13
-15 -13 -17 1 -23 23 -8 128 -7 141 2 11 7 160 250 170 277 5 12 -5 15 -57 14
-35 0 -72 -4 -81 -7z m107 -19 c-2 -10 -4 -21 -4 -25 -1 -5 -6 -8 -12 -8 -5 0
-8 4 -4 9 3 5 0 13 -6 17 -7 4 -9 3 -5 -4 3 -6 2 -13 -4 -17 -6 -4 -7 -12 -1
-22 5 -10 5 -21 -1 -27 -5 -6 -18 -26 -29 -44 -11 -18 -24 -30 -29 -27 -6 4
-8 11 -4 16 3 5 10 6 16 3 7 -4 8 -2 4 5 -12 19 -38 -7 -27 -28 5 -10 1 -30
-13 -56 -20 -37 -24 -39 -68 -40 -27 0 -48 3 -48 8 0 4 -5 5 -11 1 -19 -11 7
29 31 49 12 10 19 25 16 33 -3 8 -1 14 4 14 6 0 10 6 10 13 0 7 9 19 19 26 11
8 17 21 13 29 -3 10 -1 13 6 8 11 -6 17 5 13 27 -1 6 14 11 30 9 4 -1 5 8 2
18 -4 15 0 20 13 20 14 0 16 -2 6 -9 -10 -6 -8 -10 9 -14 13 -4 25 -4 28 -2 2
3 -1 5 -7 5 -27 0 -9 19 21 23 17 2 33 5 34 5 1 1 0 -6 -2 -15z"/>
<path d="M1966 1725 c-9 -26 -7 -32 5 -12 6 10 9 21 6 23 -2 3 -7 -2 -11 -11z"/>
<path d="M1890 1580 c-6 -11 -8 -20 -6 -20 3 0 10 9 16 20 6 11 8 20 6 20 -3
0 -10 -9 -16 -20z"/>
<path d="M1847 1579 c7 -7 15 -10 18 -7 3 3 -2 9 -12 12 -14 6 -15 5 -6 -5z"/>
<path d="M1683 1438 c-81 -121 -163 -255 -163 -265 0 -13 48 -23 106 -23 l43
0 101 168 c55 93 100 173 100 178 0 5 -31 11 -69 12 l-70 3 -48 -73z m60 45
c-7 -2 -13 -9 -13 -15 0 -6 8 -4 18 5 21 19 52 23 52 6 0 -5 5 -7 10 -4 6 3
14 4 19 0 10 -6 -33 -90 -52 -102 -8 -4 -8 -2 1 9 10 13 9 18 -5 29 -16 12
-17 12 -6 -2 7 -9 10 -19 6 -22 -3 -4 -7 -18 -9 -31 -3 -25 -53 -109 -55 -91
-1 6 -4 0 -7 -12 -7 -20 -9 -21 -44 -8 -21 7 -38 9 -38 5 0 -5 14 -11 30 -15
34 -8 33 -5 20 -39 -8 -23 -15 -26 -61 -26 -45 0 -50 2 -39 15 16 20 6 19 -14
-1 -9 -8 -16 -11 -16 -6 0 5 12 17 26 27 19 12 23 19 14 25 -9 6 -7 11 9 20
14 7 20 17 17 27 -4 11 -2 13 9 9 8 -3 14 -2 14 2 -4 22 2 42 11 37 6 -4 7 1
3 11 -5 13 -3 16 10 11 11 -4 14 -2 11 8 -7 18 45 97 59 88 6 -3 7 -1 3 6 -10
16 0 41 16 40 10 0 10 -2 1 -6z"/>
<path d="M1620 1190 c0 -5 5 -10 11 -10 5 0 7 5 4 10 -3 6 -8 10 -11 10 -2 0
-4 -4 -4 -10z"/>
<path d="M1877 1463 c-90 -145 -177 -292 -177 -300 0 -11 145 -27 159 -18 5 3
31 42 57 88 26 45 70 119 96 165 26 46 48 87 48 92 0 6 -36 10 -80 10 l-80 0
-23 -37z m150 2 c-7 -7 -16 -10 -21 -7 -5 3 -6 0 -3 -5 4 -6 -2 -27 -12 -48
-12 -25 -20 -33 -24 -24 -4 10 -6 9 -6 -4 -1 -10 -5 -16 -10 -13 -15 10 -31
-18 -19 -34 8 -12 9 -12 4 2 -5 18 9 34 18 20 3 -5 -6 -25 -19 -45 -14 -20
-25 -40 -25 -45 0 -13 -46 -72 -52 -66 -4 3 -5 -3 -4 -13 1 -12 -7 -19 -24
-20 -23 -2 -23 -2 -5 7 15 8 9 9 -25 5 -32 -4 -41 -2 -30 5 12 8 11 10 -7 10
-28 0 -30 21 -3 45 11 10 22 26 25 36 4 11 10 17 15 14 4 -3 6 3 3 14 -3 10 1
22 8 26 8 6 10 4 4 -5 -5 -9 -4 -11 4 -6 6 4 9 12 5 17 -6 10 26 40 36 34 3
-2 6 5 6 15 0 10 -5 16 -10 13 -5 -4 4 10 20 30 16 20 33 37 37 37 5 0 6 4 3
9 -3 5 23 9 59 9 52 0 62 -2 52 -13z m-280 -291 c-3 -3 -12 -4 -19 -1 -8 3 -5
6 6 6 11 1 17 -2 13 -5z"/>
<path d="M2042 1398 c-32 -57 -78 -136 -102 -176 -23 -41 -39 -77 -34 -81 5
-5 41 -11 81 -14 80 -6 82 -5 125 73 14 25 55 99 91 166 37 66 67 123 67 127
0 4 -38 7 -84 7 l-84 0 -60 -102z m194 73 c-3 -4 -10 -21 -16 -36 -9 -24 -12
-26 -28 -14 -15 13 -16 12 -4 -3 15 -19 7 -42 -11 -32 -9 5 -9 4 0 -6 11 -12
2 -44 -18 -60 -3 -3 -11 -15 -18 -27 -7 -15 -17 -20 -29 -17 -16 5 -16 5 0 -6
15 -9 16 -14 6 -30 -10 -15 -15 -17 -28 -7 -13 11 -13 10 0 -7 12 -15 12 -20
2 -23 -6 -3 -10 -9 -6 -14 7 -12 -2 -11 -29 2 l-22 10 22 -18 c31 -25 16 -41
-32 -36 -22 2 -48 4 -57 4 -10 0 -18 6 -18 12 0 7 -4 6 -10 -3 -8 -13 -10 -13
-10 1 0 9 9 24 20 34 11 10 17 21 15 25 -3 5 -2 10 3 12 4 1 22 33 40 71 18
37 38 67 43 67 6 0 7 5 4 10 -3 6 -2 10 3 10 5 0 15 14 22 30 7 17 16 30 21
30 5 0 8 3 8 8 -3 19 5 22 67 22 36 0 63 -4 60 -9z"/>
<path d="M2037 1333 c-3 -4 7 -17 22 -27 l26 -20 -20 25 c-11 13 -21 25 -21
27 -1 2 -4 0 -7 -5z"/>
<path d="M2012 1290 c-17 -27 -15 -35 4 -16 8 9 14 21 12 26 -2 6 -9 1 -16
-10z"/>
<path d="M2292 1488 c-20 -25 -192 -341 -192 -353 0 -12 147 -29 172 -20 19 8
200 354 194 371 -7 19 -159 20 -174 2z m150 -24 c-2 -5 -9 -8 -17 -6 -18 3
-28 -15 -14 -24 8 -4 9 -3 5 4 -4 7 -3 12 3 12 5 0 12 -4 15 -9 7 -11 -19 -33
-28 -24 -4 4 -4 0 0 -10 3 -9 1 -17 -5 -17 -6 0 -8 -6 -5 -14 3 -7 -2 -16 -11
-20 -10 -3 -15 -12 -11 -21 5 -15 -9 -31 -17 -18 -2 5 -2 2 -1 -4 6 -23 -7
-44 -20 -34 -9 7 -12 3 -11 -17 1 -15 -4 -34 -11 -42 -6 -8 -16 -28 -21 -45
l-10 -30 -88 -3 -89 -3 20 22 c10 11 18 23 17 25 -2 2 0 4 5 5 13 1 32 21 32
33 0 6 -5 4 -10 -4 -8 -13 -10 -13 -10 1 0 24 11 30 28 16 13 -10 14 -9 2 12
-11 22 -10 26 11 43 13 11 18 17 12 13 -9 -4 -11 -1 -7 9 3 9 9 16 13 16 9 0
42 56 35 62 -2 3 2 11 11 18 8 7 15 19 15 27 0 8 5 11 10 8 6 -3 10 1 10 9 0
11 14 16 58 18 75 4 88 3 84 -8z"/>
<path d="M2215 1279 c-4 -6 -5 -12 -2 -15 2 -3 7 2 10 11 7 17 1 20 -8 4z"/>
<path d="M2146 1177 c3 -10 9 -15 12 -12 3 3 0 11 -7 18 -10 9 -11 8 -5 -6z"/>
<path d="M2481 1425 c-85 -155 -161 -299 -161 -305 0 -9 78 -20 141 -20 l47 0
96 184 c53 102 96 190 96 198 0 10 -22 13 -90 13 l-91 1 -38 -71z m79 42 c0
12 94 13 106 0 3 -3 -4 -27 -17 -54 -23 -51 -26 -57 -28 -74 0 -5 -5 -7 -11
-4 -5 3 -10 -3 -10 -14 0 -15 -4 -19 -17 -14 -16 6 -16 5 -4 -10 9 -12 10 -17
2 -17 -7 0 -9 -4 -6 -10 3 -5 2 -10 -2 -10 -5 0 -15 -17 -23 -37 -7 -21 -20
-43 -29 -50 -9 -7 -12 -13 -8 -13 4 0 3 -9 -3 -20 -8 -16 -21 -20 -60 -20 -27
0 -52 5 -56 11 -4 8 -9 7 -15 -2 -7 -12 -9 -11 -10 1 -5 39 -4 46 8 58 7 8 10
18 7 24 -4 6 -2 8 3 5 6 -4 17 8 24 26 14 32 15 37 18 58 0 5 6 7 13 3 8 -5 9
-2 5 10 -4 10 -3 15 3 11 5 -3 12 5 16 19 3 13 12 27 20 30 8 3 14 11 14 18 0
9 -3 8 -10 -2 -5 -8 -10 -10 -10 -4 0 6 9 21 20 34 11 13 20 30 20 38 0 12 3
12 15 -4 13 -18 14 -18 9 6 -5 20 -3 22 5 10 7 -9 11 -10 11 -3z"/>
<path d="M2643 1445 c-3 -9 -3 -18 -1 -21 3 -3 8 4 11 16 6 23 -1 27 -10 5z"/>
<path d="M2525 1420 c3 -5 8 -10 11 -10 2 0 4 5 4 10 0 6 -5 10 -11 10 -5 0
-7 -4 -4 -10z"/>
<path d="M2721 1477 c-5 -12 -50 -100 -100 -196 -50 -96 -88 -178 -84 -182 5
-4 51 -9 103 -11 l95 -3 96 195 c61 124 93 199 87 206 -5 7 -45 12 -99 12 -84
1 -90 0 -98 -21z m171 -8 c2 -6 -10 -39 -26 -73 -16 -33 -30 -65 -30 -69 -1
-4 -12 -20 -26 -34 -14 -15 -19 -23 -12 -19 6 4 12 4 12 -1 0 -14 -19 -38 -30
-39 -5 -1 -14 -2 -20 -3 -5 0 -7 -8 -3 -17 5 -13 7 -13 14 -2 6 9 9 9 9 1 0
-7 -12 -23 -26 -37 -16 -14 -24 -30 -21 -39 9 -23 -43 -41 -95 -31 -24 4 -52
6 -63 5 -17 -3 -18 -1 -5 15 9 11 10 15 3 10 -9 -5 -11 -2 -7 8 3 8 14 18 25
21 21 7 26 25 7 25 -9 0 -9 3 -2 8 5 4 16 22 23 39 7 18 17 30 22 27 5 -3 6 3
2 12 -5 14 -3 16 11 11 10 -4 15 -3 11 3 -3 6 -1 10 5 10 6 0 8 5 5 10 -4 6
-12 7 -18 4 -7 -4 -2 4 11 18 12 13 22 28 22 33 0 6 12 33 28 62 l27 53 72 0
c44 0 73 -4 75 -11z m-140 -321 c-7 -7 -12 -8 -12 -2 0 14 12 26 19 19 2 -3
-1 -11 -7 -17z"/>
<path d="M2840 1466 c0 -2 11 -6 25 -8 13 -3 22 -1 19 3 -5 9 -44 13 -44 5z"/>
<path d="M2705 1381 c-3 -5 -2 -12 3 -15 5 -3 9 1 9 9 0 17 -3 19 -12 6z"/>
<path d="M2760 1270 c-9 -6 -10 -10 -3 -10 6 0 15 5 18 10 8 12 4 12 -15 0z"/>
<path d="M2680 1204 l-45 -14 40 6 c22 3 48 6 57 7 9 1 14 5 12 9 -6 9 -6 9
-64 -8z"/>
<path d="M2980 1492 c-22 -3 -37 -27 -118 -195 -51 -106 -92 -197 -92 -203 0
-17 170 -35 193 -20 19 11 200 393 194 409 -3 9 -128 15 -177 9z m81 -23 c28
1 55 -1 60 -6 9 -9 -36 -114 -54 -125 -7 -4 -21 -14 -32 -23 -15 -13 -16 -15
-3 -11 9 2 19 -2 22 -10 4 -10 2 -12 -6 -8 -8 5 -9 2 -5 -9 3 -10 3 -17 -2
-17 -4 0 -14 -18 -21 -40 -7 -22 -17 -40 -22 -40 -4 0 -8 -9 -8 -19 0 -24 -16
-36 -24 -19 -3 7 -2 0 1 -16 4 -20 3 -27 -6 -22 -6 4 -11 2 -11 -5 0 -15 -136
-7 -153 10 -8 8 -8 11 2 11 7 0 9 5 5 13 -6 9 -5 9 7 0 11 -9 14 -7 16 14 1
19 -1 22 -8 12 -5 -8 -9 -9 -9 -3 0 6 7 17 15 24 8 6 14 15 13 18 -2 18 3 23
15 14 8 -7 18 -6 32 5 20 14 20 14 0 11 -23 -4 -25 23 -5 65 10 20 16 24 22
15 4 -7 5 2 2 22 -4 24 -3 31 4 22 7 -11 11 -7 17 15 5 15 9 30 9 33 1 3 7 20
15 38 10 25 18 31 32 27 12 -4 19 -1 20 7 0 7 2 9 5 3 2 -5 27 -8 55 -6z"/>
<path d="M2946 1373 c-6 -14 -5 -15 5 -6 7 7 10 15 7 18 -3 3 -9 -2 -12 -12z"/>
<path d="M2998 1304 c-4 -3 -14 -7 -25 -9 -10 -2 -19 -4 -20 -5 -2 -2 -7 -3
-12 -4 -26 -3 -19 -15 8 -13 17 1 31 5 31 10 0 4 7 7 15 7 8 0 15 5 15 10 0
11 -4 13 -12 4z"/>
<path d="M2880 1260 c0 -5 7 -10 15 -10 8 0 15 5 15 10 0 6 -7 10 -15 10 -8 0
-15 -4 -15 -10z"/>
<path d="M3198 1473 c-18 -20 -178 -379 -178 -398 0 -23 190 -34 208 -12 11
14 182 407 182 419 0 4 -44 8 -98 8 -82 0 -102 -3 -114 -17z m101 -24 c-23
-15 0 -10 32 6 35 19 56 11 37 -13 -11 -13 -11 -14 0 -8 7 4 2 -14 -12 -41
-14 -26 -30 -61 -35 -76 -6 -16 -15 -25 -21 -22 -5 3 -10 0 -11 -7 -2 -45 -11
-75 -37 -123 -17 -30 -26 -53 -21 -49 5 3 6 -2 3 -10 -3 -9 -13 -16 -21 -16
-8 0 -12 -4 -9 -9 3 -4 -25 -6 -62 -4 -37 2 -69 9 -70 14 -3 6 -9 5 -18 -2
-19 -15 -18 -4 2 26 9 13 12 30 8 36 -5 8 -2 10 8 6 12 -4 17 4 21 33 3 22 14
52 26 68 11 16 17 32 13 36 -4 4 -1 6 7 4 7 -2 16 3 19 11 3 8 0 11 -7 7 -6
-4 -11 -3 -11 3 0 5 6 14 13 18 8 4 22 34 32 66 10 31 18 57 19 58 0 0 21 3
46 6 25 3 47 7 50 10 2 2 6 -1 9 -8 2 -6 -3 -15 -10 -20z"/>
<path d="M3225 1400 c-3 -6 1 -7 9 -4 18 7 21 14 7 14 -6 0 -13 -4 -16 -10z"/>
<path d="M3101 1194 c0 -11 3 -14 6 -6 3 7 2 16 -1 19 -3 4 -6 -2 -5 -13z"/>
<path d="M3433 1478 c-6 -7 -49 -105 -97 -217 -56 -131 -84 -207 -78 -213 5
-5 55 -10 111 -11 99 -2 102 -1 116 23 32 54 166 402 161 415 -7 20 -198 22
-213 3z m177 -23 c9 -10 9 -19 2 -27 -5 -7 -13 -29 -17 -48 -4 -19 -16 -53
-26 -75 -9 -22 -32 -75 -50 -117 -18 -42 -36 -75 -41 -72 -4 3 -5 -2 -2 -11 7
-17 -33 -68 -47 -60 -4 3 -27 5 -51 6 -23 0 -58 5 -76 11 l-32 10 19 26 c10
15 24 43 30 64 7 20 18 39 26 42 8 3 15 11 15 18 0 9 -3 8 -10 -2 -16 -25 -12
7 5 41 10 18 20 27 28 22 9 -5 8 -2 -1 9 -13 16 -7 48 9 48 12 0 11 -17 -1
-23 -6 -3 -5 -4 2 -3 8 2 12 15 10 34 -2 18 1 32 7 32 5 0 13 15 16 33 11 52
21 57 100 57 52 0 76 -4 85 -15z"/>
<path d="M3450 1450 c-8 -5 -10 -10 -5 -10 6 0 17 5 25 10 8 5 11 10 5 10 -5
0 -17 -5 -25 -10z"/>
<path d="M3531 1263 c-1 -6 -4 -20 -7 -30 -5 -17 -5 -17 6 0 6 10 9 23 6 30
-3 9 -5 9 -5 0z"/>
<path d="M3451 1184 c0 -11 3 -14 6 -6 3 7 2 16 -1 19 -3 4 -6 -2 -5 -13z"/>
<path d="M3450 1101 c0 -6 4 -13 10 -16 6 -3 7 1 4 9 -7 18 -14 21 -14 7z"/>
<path d="M1494 1122 c-22 -14 -235 -365 -227 -372 4 -5 40 -12 79 -15 l71 -7
111 187 c62 103 112 190 112 194 0 5 -24 11 -52 15 -67 8 -80 7 -94 -2z m99
-58 c-13 -26 -22 -34 -36 -30 -18 4 -18 4 0 -16 10 -12 12 -18 6 -14 -8 4 -13
1 -13 -8 0 -9 -5 -16 -11 -16 -5 0 -7 -4 -4 -10 3 -5 2 -10 -3 -10 -5 0 -17
-20 -27 -45 -15 -40 -19 -44 -32 -33 -14 11 -15 10 -10 -7 4 -11 2 -27 -4 -35
-9 -13 -10 -12 -5 3 4 11 2 16 -5 12 -6 -4 -8 -13 -5 -21 8 -20 -4 -44 -20
-44 -8 0 -13 -3 -13 -7 3 -21 -2 -34 -11 -28 -6 4 -8 12 -4 18 3 7 0 5 -8 -3
-16 -19 -64 -27 -53 -10 6 9 -2 11 -26 6 -19 -3 -28 -3 -21 0 7 3 19 19 27 35
9 16 21 28 28 26 7 -1 11 7 9 21 -2 23 11 45 91 160 21 29 35 57 32 62 -10 16
28 29 82 30 l53 0 -17 -36z"/>
<path d="M1500 1055 c13 -14 26 -25 28 -25 3 0 -5 11 -18 25 -13 14 -26 25
-28 25 -3 0 5 -11 18 -25z"/>
<path d="M1475 950 c-3 -5 -1 -10 4 -10 6 0 11 5 11 10 0 6 -2 10 -4 10 -3 0
-8 -4 -11 -10z"/>
<path d="M1386 913 c-6 -14 -5 -15 5 -6 7 7 10 15 7 18 -3 3 -9 -2 -12 -12z"/>
<path d="M1655 1095 c-86 -142 -206 -345 -210 -357 -5 -12 5 -17 47 -22 29 -4
67 -9 84 -12 30 -6 31 -5 143 191 62 109 109 201 104 205 -4 4 -41 10 -82 12
-65 3 -75 2 -86 -17z m125 -1 c0 6 5 4 10 -4 14 -22 12 -30 -5 -24 -10 4 -15
0 -15 -12 0 -17 -37 -104 -49 -114 -3 -3 -14 -21 -23 -40 -26 -52 -61 -113
-75 -128 -7 -7 -13 -19 -13 -27 0 -17 -45 -28 -68 -17 -9 5 -23 7 -31 4 -10
-3 -11 0 -5 9 6 11 5 12 -8 2 -8 -7 -17 -10 -21 -7 -6 6 43 107 66 137 15 18
33 24 22 8 -3 -5 -1 -13 5 -16 6 -4 9 -1 8 7 -2 7 3 12 10 10 9 -2 9 4 -3 21
-13 21 -13 25 1 46 9 12 22 20 29 18 8 -4 11 3 10 17 -2 12 6 33 17 47 11 13
17 19 14 13 -3 -6 1 -11 9 -11 11 0 12 4 4 13 -7 9 -7 19 0 32 8 16 17 18 60
12 34 -4 51 -3 51 4z"/>
<path d="M1686 948 c3 -5 10 -6 15 -3 13 9 11 12 -6 12 -8 0 -12 -4 -9 -9z"/>
<path d="M1535 839 c-11 -16 -1 -19 13 -3 7 8 8 14 3 14 -5 0 -13 -5 -16 -11z"/>
<path d="M1610 800 c0 -5 5 -10 11 -10 5 0 7 5 4 10 -3 6 -8 10 -11 10 -2 0
-4 -4 -4 -10z"/>
<path d="M1758 901 c-64 -110 -113 -203 -110 -205 4 -2 40 -9 81 -15 60 -9 77
-9 86 1 27 29 225 392 218 399 -5 4 -42 11 -84 15 l-75 6 -116 -201z m246 159
c-1 -26 -16 -50 -26 -44 -5 3 -8 0 -6 -7 4 -20 -34 -79 -45 -72 -6 3 -7 1 -3
-5 8 -13 -23 -72 -37 -72 -5 0 -6 -7 -3 -16 4 -10 2 -13 -6 -8 -8 5 -9 2 -5
-10 5 -14 3 -17 -8 -13 -17 7 -30 -9 -15 -18 6 -4 0 -21 -15 -43 -14 -20 -25
-42 -25 -49 0 -7 -11 -10 -27 -8 -16 2 -28 4 -28 5 0 1 -15 3 -34 6 -42 5 -48
11 -33 26 7 7 12 20 12 30 0 10 7 21 15 24 8 4 12 11 8 17 -4 6 0 8 10 4 21
-8 32 10 18 27 -9 11 -8 18 4 30 9 9 21 16 27 16 6 0 8 9 5 20 -3 11 -1 23 4
26 5 3 9 1 9 -3 0 -5 7 -18 16 -29 15 -18 15 -18 5 3 -15 30 -14 66 1 57 7 -4
8 -3 4 5 -4 6 1 23 12 39 10 15 22 35 25 45 4 9 14 17 22 17 9 0 14 4 11 8 -3
4 21 8 52 8 44 -1 57 -4 56 -16z"/>
<path d="M1946 1028 c3 -5 10 -6 15 -3 13 9 11 12 -6 12 -8 0 -12 -4 -9 -9z"/>
<path d="M1700 730 c-9 -6 -10 -10 -3 -10 6 0 15 5 18 10 8 12 4 12 -15 0z"/>
<path d="M2071 1081 c-16 -11 -232 -394 -228 -405 3 -6 18 -13 33 -14 16 -1
53 -6 82 -11 35 -5 57 -4 66 3 16 12 216 386 216 404 0 10 -33 17 -123 25 -20
2 -41 1 -46 -2z m49 -20 c0 -5 16 -8 35 -7 23 2 35 -1 35 -10 0 -18 -17 -27
-23 -12 -2 7 -4 1 -3 -14 0 -14 4 -24 9 -21 10 6 9 -2 -9 -47 -9 -23 -21 -37
-27 -33 -6 4 -8 -2 -5 -15 4 -13 2 -20 -6 -19 -6 1 -11 -8 -10 -21 0 -16 -4
-21 -13 -17 -10 3 -13 -1 -8 -15 4 -12 -1 -26 -14 -39 -10 -10 -17 -22 -14
-24 5 -6 -19 -47 -29 -47 -4 0 -9 8 -11 18 -2 9 -3 0 -1 -22 3 -34 2 -37 -13
-25 -15 13 -15 12 -5 -8 11 -20 10 -21 -16 -17 -65 10 -77 15 -61 25 7 5 9 9
3 9 -5 0 -14 -4 -20 -8 -5 -5 -20 -6 -34 -1 -14 4 -19 7 -11 8 7 1 11 7 7 16
-4 13 -2 13 14 5 24 -13 40 -13 18 1 -22 12 -23 23 -2 43 8 9 12 16 8 16 -4 0
1 9 11 20 12 13 22 17 30 10 8 -7 11 0 9 26 -2 19 1 32 5 29 5 -3 12 2 15 11
3 9 2 12 -4 9 -6 -4 1 10 15 31 14 20 25 41 25 46 0 5 4 6 10 3 5 -3 8 0 5 7
-3 7 5 24 16 38 17 21 20 21 14 5 -5 -16 -4 -17 6 -8 9 10 10 15 0 27 -8 10
-9 16 -1 21 5 3 10 0 10 -7 0 -8 5 -6 11 5 11 18 29 23 29 8z m87 -31 c-6 -16
-15 -30 -19 -30 -12 0 -10 8 8 35 22 33 25 31 11 -5z"/>
<path d="M1985 839 c-4 -6 -5 -12 -2 -15 2 -3 7 2 10 11 7 17 1 20 -8 4z"/>
<path d="M2292 1057 c-29 -35 -222 -402 -218 -412 5 -14 166 -32 184 -21 6 3
58 101 117 216 72 143 102 212 93 214 -37 12 -168 13 -176 3z m135 -22 c6 -2
14 1 17 8 3 7 2 -1 -1 -18 -3 -16 -10 -33 -15 -36 -5 -3 -11 -12 -13 -20 -8
-37 -18 -59 -25 -59 -5 0 -18 -13 -30 -30 -19 -26 -19 -29 -3 -23 15 6 16 5 3
-9 -8 -9 -18 -14 -21 -12 -4 2 -10 -3 -13 -12 -3 -8 -2 -12 4 -9 6 3 10 1 10
-5 0 -6 -7 -13 -15 -16 -8 -4 -12 -10 -9 -15 10 -16 -7 -33 -18 -18 -7 11 -8
9 -4 -4 8 -25 -32 -96 -46 -82 -3 3 -4 -5 -4 -18 1 -19 -3 -22 -34 -19 -56 5
-67 11 -81 43 -10 26 -10 32 2 40 8 5 10 9 6 9 -5 0 1 13 12 29 12 16 21 34
21 41 0 6 4 8 10 5 6 -3 7 1 4 9 -3 9 -2 16 3 16 6 0 15 18 22 40 6 22 16 40
21 40 6 0 10 6 10 14 0 7 7 19 15 26 8 7 12 17 8 23 -4 6 0 8 9 4 10 -3 15 0
14 11 0 9 5 16 12 14 10 -2 10 2 1 19 -6 12 -7 19 -2 16 5 -3 15 -2 22 2 12 7
83 5 108 -4z m-297 -379 c0 -5 -7 -3 -15 4 -12 10 -15 10 -15 0 0 -8 -3 -10
-6 -7 -4 4 -1 14 6 22 11 13 15 13 21 3 5 -7 9 -17 9 -22z"/>
<path d="M2501 1046 c-5 -6 -56 -107 -114 -224 -99 -200 -104 -212 -84 -217
53 -11 143 -25 164 -25 21 0 32 16 77 113 29 61 76 159 105 217 28 57 51 110
51 117 0 19 -184 37 -199 19z m152 -22 c15 2 27 -1 27 -5 0 -5 -4 -9 -10 -9
-5 0 -10 -7 -10 -15 0 -8 -4 -15 -9 -15 -5 0 -8 -6 -8 -12 1 -7 -7 -32 -17
-55 -13 -31 -24 -43 -40 -43 -16 0 -18 -2 -7 -9 9 -6 11 -18 7 -35 -4 -15 -11
-24 -17 -21 -5 4 -8 3 -7 -2 4 -13 -24 -83 -34 -83 -4 0 -7 -3 -7 -7 3 -20 -2
-34 -10 -29 -5 4 -7 -4 -3 -16 3 -14 1 -19 -6 -14 -8 5 -10 2 -6 -8 3 -9 1
-16 -6 -16 -6 0 -9 -4 -6 -9 8 -13 -35 -21 -55 -10 -23 12 -38 12 -19 -1 10
-6 2 -7 -25 -3 -43 6 -82 22 -56 23 11 0 11 3 0 17 -12 14 -12 16 0 8 11 -6
13 -4 8 8 -3 9 0 22 6 29 7 7 16 21 20 31 4 10 11 16 16 13 5 -3 7 3 4 14 -3
12 2 29 11 39 9 10 13 22 9 26 -5 5 0 3 10 -4 9 -8 20 -11 24 -7 3 3 2 6 -4 6
-6 0 -14 7 -17 16 -4 12 -2 15 9 10 8 -3 15 -1 15 4 0 6 -5 10 -11 10 -5 0 -7
5 -4 10 4 6 11 8 16 4 5 -3 8 0 7 8 -2 7 5 12 14 12 10 -1 15 3 12 8 -3 5 -13
7 -21 4 -9 -4 -13 -1 -10 6 2 7 10 12 16 10 7 -1 10 2 6 8 -4 6 -1 17 5 25 7
8 9 15 6 15 -4 0 1 13 10 30 13 21 20 26 26 17 5 -8 8 -7 8 5 0 22 16 26 65
17 23 -4 53 -6 68 -5z"/>
<path d="M2491 974 c0 -11 3 -14 6 -6 3 7 2 16 -1 19 -3 4 -6 -2 -5 -13z"/>
<path d="M2350 684 c0 -6 7 -19 16 -30 14 -18 14 -18 3 6 -14 31 -19 36 -19
24z"/>
<path d="M2730 1026 c-8 -10 -45 -88 -156 -324 -45 -96 -54 -132 -31 -132 6 0
48 -7 92 -14 88 -16 97 -13 120 38 7 17 52 114 99 215 47 102 86 190 86 197 0
22 -193 40 -210 20z m100 -17 c76 -3 100 -14 74 -34 -8 -6 -16 -22 -16 -35 -2
-24 -31 -73 -40 -65 -2 2 -5 -6 -6 -19 -1 -12 -8 -36 -16 -51 -8 -16 -12 -33
-9 -38 3 -6 1 -7 -5 -3 -7 4 -12 1 -12 -7 0 -8 -6 -27 -14 -43 -13 -25 -35
-77 -41 -94 -9 -26 -19 -39 -26 -34 -5 3 -6 -3 -2 -12 5 -14 3 -16 -11 -11
-10 4 -34 7 -54 7 -24 0 -32 3 -24 9 11 7 10 10 -3 15 -9 3 -24 6 -33 5 -14 0
-13 -2 3 -10 16 -7 14 -8 -10 -3 -38 7 -43 13 -25 24 8 6 11 10 6 10 -5 0 -3
7 4 15 7 9 10 18 7 22 -4 3 2 18 13 33 11 16 20 33 20 40 0 6 5 8 12 4 8 -5 9
-2 5 10 -4 9 0 27 8 40 8 12 12 26 8 31 -5 4 -2 5 5 1 8 -5 13 -3 11 5 -1 8
-1 21 0 29 1 13 2 13 11 0 8 -13 10 -12 10 3 0 9 5 17 10 17 6 0 10 11 10 24
0 14 5 28 10 31 6 4 8 11 4 16 -3 6 2 17 12 25 11 9 13 13 6 9 -10 -5 -10 -1
-1 19 7 14 15 24 18 21 4 -2 40 -5 81 -6z"/>
<path d="M2740 995 c0 -8 29 -12 39 -5 9 5 4 8 -13 8 -14 0 -26 -2 -26 -3z"/>
<path d="M2974 995 c-7 -11 -56 -114 -109 -229 -77 -168 -93 -212 -83 -222 21
-19 190 -37 204 -21 19 19 208 466 201 473 -4 4 -50 10 -103 13 -90 6 -98 5
-110 -14z m146 -14 c-25 -7 -25 -7 -2 -13 15 -4 25 -1 32 10 8 13 9 10 6 -13
-2 -16 -5 -34 -5 -39 -1 -5 -7 -4 -14 2 -10 8 -13 6 -13 -8 0 -10 5 -16 11
-12 5 3 4 -1 -2 -10 -7 -8 -10 -18 -6 -21 3 -4 1 -7 -5 -7 -7 0 -12 -7 -12
-16 0 -10 -22 -66 -50 -126 -27 -59 -53 -120 -56 -134 -8 -30 -44 -72 -44 -51
0 9 -2 9 -8 0 -6 -10 -21 -10 -70 0 -34 7 -66 17 -72 23 -14 14 8 66 23 57 6
-4 8 0 4 10 -3 9 -2 19 4 22 5 4 7 10 4 15 -7 11 5 41 14 36 3 -3 15 17 25 42
10 26 26 63 37 83 10 20 15 40 11 44 -4 5 -1 5 6 1 8 -5 12 0 12 14 0 12 9 35
21 51 11 16 18 29 14 29 -3 0 -4 3 -2 8 3 4 40 8 84 9 46 1 68 -2 53 -6z"/>
<path d="M2996 969 c2 -4 13 -7 24 -6 23 2 17 10 -10 12 -10 1 -17 -2 -14 -6z"/>
<path d="M3070 810 c-9 -16 -8 -18 5 -14 8 4 15 12 15 20 0 20 -7 17 -20 -6z"/>
<path d="M2916 812 c-3 -5 1 -9 9 -9 8 0 12 4 9 9 -3 4 -7 8 -9 8 -2 0 -6 -4
-9 -8z"/>
<path d="M3046 755 c-9 -26 -7 -32 5 -12 6 10 9 21 6 23 -2 3 -7 -2 -11 -11z"/>
<path d="M2850 681 c0 -5 5 -13 10 -16 6 -3 10 -2 10 4 0 5 -4 13 -10 16 -5 3
-10 2 -10 -4z"/>
<path d="M2965 629 c-4 -5 -4 -13 -1 -16 3 -4 6 0 6 8 0 11 2 11 10 -1 6 -9
10 -10 10 -3 0 17 -17 25 -25 12z"/>
<path d="M2816 593 c-6 -14 -5 -15 5 -6 7 7 10 15 7 18 -3 3 -9 -2 -12 -12z"/>
<path d="M2832 574 c-7 -8 -8 -14 -3 -14 10 0 25 19 20 25 -2 1 -10 -3 -17
-11z"/>
<path d="M3224 989 c-6 -8 -39 -77 -74 -154 -34 -77 -80 -178 -101 -224 -27
-57 -36 -88 -29 -96 5 -6 53 -17 106 -24 80 -11 99 -10 109 1 6 7 56 118 110
247 105 250 105 251 39 251 -17 0 -58 3 -90 6 -44 5 -62 3 -70 -7z m157 -22
c25 -1 35 -6 32 -14 -3 -7 -9 -10 -14 -7 -5 3 -6 -3 -2 -12 5 -14 3 -16 -12
-10 -11 4 -16 4 -13 0 4 -4 3 -15 -2 -25 -7 -12 -7 -20 0 -24 7 -4 8 -11 2
-18 -6 -7 -16 -31 -22 -54 l-13 -42 -19 22 c-18 21 -19 21 -9 1 12 -26 10 -65
-3 -57 -5 4 -7 -1 -3 -10 3 -8 0 -20 -6 -26 -7 -5 -14 -22 -15 -37 -1 -15 -9
-38 -17 -50 -8 -13 -15 -30 -15 -38 0 -8 -7 -22 -16 -30 -8 -9 -12 -20 -9 -26
8 -13 9 -13 -99 7 -70 13 -85 18 -66 24 23 7 24 7 3 8 -20 1 -21 3 -11 26 6
14 17 25 24 25 8 0 11 6 8 15 -4 8 -1 15 7 15 7 0 9 3 6 6 -3 4 0 16 8 28 8
11 15 25 15 31 0 5 -5 3 -10 -5 -5 -8 -10 -10 -10 -5 1 19 29 47 40 40 9 -6 9
-2 1 13 -8 15 -8 24 2 34 27 30 58 80 53 85 -3 4 -6 1 -6 -5 0 -7 -5 -12 -12
-12 -6 0 -4 7 5 18 10 10 14 22 10 25 -3 4 -1 7 6 7 6 0 11 6 9 13 -4 19 21
57 44 66 11 4 36 5 57 3 20 -2 52 -4 72 -5z m0 -80 c-10 -9 -11 -8 -5 6 3 10
9 15 12 12 3 -3 0 -11 -7 -18z"/>
<path d="M3173 748 c1 -15 6 -23 11 -18 4 4 4 16 -2 26 -9 16 -10 14 -9 -8z"/>
<path d="M3148 533 c7 -3 16 -2 19 1 4 3 -2 6 -13 5 -11 0 -14 -3 -6 -6z"/>
<path d="M3686 2525 c-134 -34 -265 -126 -341 -240 l-36 -55 21 -30 c27 -37
37 -38 45 -2 9 45 81 146 141 201 30 28 85 65 122 83 62 30 75 33 164 33 53 0
93 4 89 8 -16 16 -145 17 -205 2z m-146 -79 c0 -2 -8 -10 -17 -17 -16 -13 -17
-12 -4 4 13 16 21 21 21 13z m-70 -66 c-18 -16 -35 -30 -38 -30 -3 0 7 14 23
30 16 17 33 30 38 30 5 0 -5 -13 -23 -30z m-65 -77 c-14 -21 -30 -50 -36 -65
-11 -28 -23 -35 -33 -19 -3 5 3 20 15 34 11 15 20 30 20 34 1 4 5 7 10 6 5 -2
9 2 9 7 0 13 22 39 33 40 4 0 -4 -17 -18 -37z"/>
<path d="M3346 2233 c-6 -14 -5 -15 5 -6 7 7 10 15 7 18 -3 3 -9 -2 -12 -12z"/>
<path d="M1895 2379 c-27 -4 -68 -15 -90 -24 -22 -8 -29 -13 -15 -10 124 26
156 28 232 12 43 -8 100 -27 128 -41 27 -14 56 -24 63 -22 6 1 9 1 5 -1 -4 -2
32 -42 80 -88 47 -46 87 -83 87 -82 1 1 7 15 13 31 12 26 11 31 -15 58 -46 49
-160 119 -231 143 -79 26 -187 37 -257 24z m439 -160 c-9 -16 -24 -10 -17 8 4
11 3 14 -5 9 -7 -4 -12 -2 -12 5 0 7 -3 9 -7 6 -9 -9 -34 13 -27 24 3 5 21 -3
40 -17 18 -14 31 -30 28 -35z m36 -24 c10 -12 10 -19 2 -27 -9 -9 -12 -7 -12
10 0 16 -4 20 -17 15 -11 -4 -14 -3 -9 5 10 16 21 15 36 -3z"/>
<path d="M2350 2296 c0 -2 7 -7 16 -10 8 -3 12 -2 9 4 -6 10 -25 14 -25 6z"/>
<path d="M3635 2209 c-37 -6 -95 -26 -153 -55 -93 -46 -93 -47 -86 -78 3 -17
8 -34 11 -38 2 -4 28 12 57 36 140 113 298 143 433 81 29 -13 53 -20 53 -16 0
12 -109 59 -155 66 -78 12 -101 12 -160 4z m-152 -92 c-13 -5 -23 -13 -23 -17
0 -5 -7 -11 -16 -14 -10 -4 -13 -2 -7 7 4 6 8 15 9 20 2 12 3 12 32 13 26 2
26 1 5 -9z m-60 -22 c-3 -9 -8 -14 -10 -11 -3 3 -2 9 2 15 9 16 15 13 8 -4z"/>
<path d="M855 2140 c10 -11 20 -20 23 -20 3 0 -3 9 -13 20 -10 11 -20 20 -23
20 -3 0 3 -9 13 -20z"/>
<path d="M913 2064 c0 -8 3 -12 5 -9 3 3 11 0 19 -7 7 -6 15 -9 17 -7 2 2 -6
12 -18 21 -18 13 -23 14 -23 2z"/>
<path d="M2105 2044 c-54 -8 -119 -27 -160 -47 -46 -23 -133 -87 -118 -87 6 0
22 9 36 20 14 11 52 33 84 47 97 44 263 35 372 -21 l31 -17 0 40 c0 37 -2 39
-42 49 -53 13 -162 21 -203 16z m135 -23 c14 -4 20 -9 15 -12 -6 -3 -26 0 -45
7 -37 14 -14 17 30 5z m85 -21 c3 -5 4 -10 1 -10 -2 0 -12 -3 -22 -7 -13 -5
-15 -3 -9 7 6 10 4 12 -9 7 -10 -4 -15 -3 -11 3 8 13 42 13 50 0z"/>
<path d="M1060 1970 c-9 -6 -10 -10 -3 -10 6 0 15 5 18 10 8 12 4 12 -15 0z"/>
<path d="M1510 1446 c0 -2 8 -10 18 -17 15 -13 16 -12 3 4 -13 16 -21 21 -21
13z"/>
<path d="M1550 1330 c-6 -11 -8 -20 -6 -20 3 0 10 9 16 20 6 11 8 20 6 20 -3
0 -10 -9 -16 -20z"/>
<path d="M3390 266 c0 -2 7 -7 16 -10 8 -3 12 -2 9 4 -6 10 -25 14 -25 6z"/>
</g>
</svg>
